    <svg
      xmlns="http://www.w3.org/2000/svg"
      fillRule="evenodd"
      strokeLinejoin="round"
      strokeMiterlimit="2"
      clipRule="evenodd"
      viewBox="0 0 109 109"
    >
      <path
        fill="#4a657e"
        d="M108.333 54.167c0 29.715-24.451 54.166-54.166 54.166C24.452 108.333 0 83.882 0 54.167 0 24.452 24.452 0 54.167 0c29.703.031 54.135 24.464 54.166 54.167z"
      ></path>
      <path
        fill="#fff"
        d="M73.781 40.448L60.057 54.167l13.724 13.718a4.17 4.17 0 011.221 2.948c0 2.287-1.882 4.169-4.169 4.169a4.17 4.17 0 01-2.948-1.221L54.167 60.057 40.448 73.781a4.17 4.17 0 01-2.948 1.221c-2.287 0-4.169-1.882-4.169-4.169 0-1.105.44-2.166 1.221-2.948l13.724-13.718-13.724-13.719a4.174 4.174 0 01-1.221-2.948c0-2.287 1.882-4.169 4.169-4.169 1.105 0 2.166.44 2.948 1.221l13.719 13.724 13.718-13.724a4.174 4.174 0 012.948-1.221c2.287 0 4.169 1.882 4.169 4.169a4.17 4.17 0 01-1.221 2.948z"
      ></path>
    </svg>