 <svg
      xmlns="http://www.w3.org/2000/svg"
      fillRule="evenodd"
      strokeLinejoin="round"
      strokeMiterlimit="2"
      clipRule="evenodd"
      viewBox="0 0 113 113"
    >
      <path
        fill="#fff"
        fillRule="nonzero"
        stroke="#fff"
        strokeWidth="4.17"
        d="M56.25 2.083c-29.715 0-54.167 24.452-54.167 54.167s24.452 54.167 54.167 54.167 54.167-24.452 54.167-54.167C110.385 26.547 85.953 2.115 56.25 2.083zm0 100c-25.143 0-45.833-20.69-45.833-45.833 0-25.143 20.69-45.833 45.833-45.833 25.143 0 45.833 20.69 45.833 45.833-.028 25.133-20.7 45.805-45.833 45.833zM62.5 56.25c0 3.429-2.821 6.25-6.25 6.25S50 59.679 50 56.25 52.821 50 56.25 50s6.25 2.821 6.25 6.25zm22.917 0c0 3.429-2.822 6.25-6.25 6.25-3.429 0-6.25-2.821-6.25-6.25S75.738 50 79.167 50c3.428 0 6.25 2.821 6.25 6.25zm-45.834 0c0 3.429-2.821 6.25-6.25 6.25-3.428 0-6.25-2.821-6.25-6.25S29.905 50 33.333 50c3.429 0 6.25 2.821 6.25 6.25z"
      ></path>
    </svg>